<?xml version="1.0" standalone="no"?>
<!DOCTYPE svg PUBLIC "-//W3C//DTD SVG 20010904//EN"
 "http://www.w3.org/TR/2001/REC-SVG-20010904/DTD/svg10.dtd">
<svg version="1.0" xmlns="http://www.w3.org/2000/svg"
 width="127.000000pt" height="127.000000pt" viewBox="0 0 127.000000 127.000000"
 preserveAspectRatio="xMidYMid meet">
<metadata>
Created by potrace 1.14, written by Peter Selinger 2001-2017
</metadata>
<g transform="translate(0.000000,127.000000) scale(0.100000,-0.100000)"
fill="#000000" stroke="none">
<path d="M607 1246 c-3 -7 -23 -16 -44 -19 -45 -7 -85 -52 -86 -96 -3 -78 3
-97 34 -115 l30 -18 -27 -25 c-31 -29 -42 -28 -155 13 -81 30 -109 28 -109 -9
0 -30 65 -124 135 -197 29 -30 58 -65 64 -77 11 -21 9 -22 -39 -21 -28 1 -56
-4 -62 -10 -7 -7 -18 -12 -26 -12 -8 0 -36 -21 -63 -47 -28 -26 -56 -51 -64
-56 -41 -23 16 -88 71 -81 26 3 27 3 4 -4 -45 -14 -3 -24 57 -13 64 12 150 15
139 4 -4 -4 -41 -10 -84 -14 l-77 -8 88 4 c96 3 92 5 88 -63 -3 -44 22 -72 66
-72 41 0 45 25 8 68 -19 23 -23 35 -16 58 5 19 15 30 29 32 24 4 27 -8 23 -83
-2 -36 1 -42 32 -58 37 -20 78 -20 85 0 2 7 -10 27 -27 44 -17 17 -31 41 -31
54 0 84 31 113 91 84 61 -30 124 -42 148 -30 37 20 21 75 -45 158 -19 23 -34
44 -34 47 0 3 14 6 30 6 23 0 33 -6 40 -24 17 -47 69 -56 105 -20 21 22 19 90
-3 112 -16 16 -16 21 -6 38 22 32 -20 64 -84 64 -39 0 -39 0 -37 37 2 30 7 39
26 44 24 6 24 6 -4 14 -18 5 -38 2 -59 -8 -30 -15 -33 -14 -46 4 -9 13 -25 19
-54 19 -34 0 -39 -2 -28 -15 7 -9 22 -12 39 -9 22 5 29 1 39 -20 14 -31 11
-31 -36 -9 -57 27 -104 61 -93 68 6 3 22 28 35 56 22 43 23 51 10 56 -12 4
-14 16 -9 57 6 49 5 52 -28 78 -26 20 -36 24 -40 14z m-278 -262 c2 -2 -8 -4
-22 -4 -31 0 -35 -19 -11 -55 9 -14 14 -25 11 -25 -3 0 -15 16 -27 35 -28 45
-21 68 17 59 16 -4 30 -8 32 -10z m24 -11 c-9 -3 -10 -10 -4 -21 4 -9 11 -37
15 -61 6 -37 4 -42 -7 -33 -8 7 -16 10 -19 7 -3 -3 -11 2 -19 12 -9 11 -10 14
-1 9 16 -10 16 -7 -8 39 l-21 40 28 6 c34 8 52 9 36 2z m77 -28 c14 -8 21 -14
15 -14 -5 0 -21 6 -35 14 -14 8 -20 14 -15 14 6 0 21 -6 35 -14z m185 6 c3 -5
1 -13 -5 -16 -15 -9 -43 3 -35 15 8 13 32 13 40 1z m-200 -58 c4 -21 3 -33 -4
-33 -6 0 -11 8 -11 18 0 9 -3 28 -6 42 -5 17 -3 22 4 15 5 -5 13 -25 17 -42z
m369 -18 c4 -10 -1 -15 -14 -15 -11 0 -20 7 -20 15 0 8 6 15 14 15 8 0 16 -7
20 -15z m12 -41 c-4 -12 -1 -14 13 -9 27 8 61 -15 61 -41 0 -18 -4 -21 -22
-16 -19 5 -20 7 -5 10 9 2 17 8 17 12 0 6 -10 6 -22 1 -28 -10 -48 -4 -48 14
0 12 -21 25 -42 25 -6 0 -6 -6 2 -15 7 -8 9 -15 6 -15 -15 0 -46 21 -46 31 0
6 4 8 9 5 5 -4 20 -2 33 3 36 15 51 13 44 -5z m122 9 c-10 -2 -28 -2 -40 0
-13 2 -5 4 17 4 22 1 32 -1 23 -4z m-532 -35 l29 -33 -32 29 c-31 28 -38 36
-30 36 2 0 16 -15 33 -32z m544 8 c0 -7 -11 -16 -25 -18 -19 -4 -25 -1 -25 13
0 14 7 19 25 19 15 0 25 -6 25 -14z m-153 -128 c78 -80 113 -133 113 -171 0
-29 -1 -30 -43 -25 -48 6 -160 53 -179 76 -7 8 19 -2 57 -22 83 -43 142 -56
151 -33 3 8 -4 32 -15 54 -24 45 -126 161 -135 152 -4 -3 0 -35 9 -70 14 -63
19 -107 11 -98 -9 9 -37 161 -31 167 3 3 -9 21 -27 40 l-33 35 30 -21 c17 -11
58 -49 92 -84z m-92 -16 c9 -46 15 -86 12 -88 -13 -13 -37 12 -38 40 0 17 -3
58 -5 91 -7 84 10 60 31 -43z m123 -90 c11 -62 10 -67 -12 -59 -8 3 -19 31
-26 64 -6 32 -14 67 -17 78 -5 18 -3 18 20 -3 18 -17 28 -41 35 -80z m-342 44
c-17 -26 -27 -31 -39 -20 -3 4 4 15 16 25 21 18 21 18 2 19 l-20 1 20 9 c30
12 40 -5 21 -34z m-96 30 c0 -2 -15 -9 -32 -15 -30 -10 -31 -9 -14 4 18 14 46
20 46 11z m20 -31 c0 -19 -44 -48 -78 -51 -15 -1 -43 -5 -62 -9 l-35 -8 24 27
c14 14 32 26 42 26 9 0 32 7 50 15 44 18 59 19 59 0z m47 9 c-3 -3 -12 -4 -19
-1 -8 3 -5 6 6 6 11 1 17 -2 13 -5z m143 -64 c0 -5 -5 -10 -11 -10 -5 0 -7 5
-4 10 3 6 8 10 11 10 2 0 4 -4 4 -10z m-131 -9 c14 -9 11 -10 -111 -27 -50 -7
-47 0 8 20 45 17 83 19 103 7z m-182 -17 c-3 -3 -12 -4 -19 -1 -8 3 -5 6 6 6
11 1 17 -2 13 -5z m418 -14 c-3 -5 -10 -10 -16 -10 -5 0 -9 5 -9 10 0 6 7 10
16 10 8 0 12 -4 9 -10z m-105 -10 c0 -5 -8 -10 -17 -10 -15 0 -16 2 -3 10 19
12 20 12 20 0z m-117 -17 c-7 -2 -21 -2 -30 0 -10 3 -4 5 12 5 17 0 24 -2 18
-5z m-80 -10 c-7 -2 -19 -2 -25 0 -7 3 -2 5 12 5 14 0 19 -2 13 -5z m204 1
c-3 -3 -12 -4 -19 -1 -8 3 -5 6 6 6 11 1 17 -2 13 -5z m-124 -11 c-7 -2 -19
-2 -25 0 -7 3 -2 5 12 5 14 0 19 -2 13 -5z m102 -143 c4 -6 -5 -10 -20 -10
-15 0 -24 4 -20 10 3 6 12 10 20 10 8 0 17 -4 20 -10z m125 0 c0 -5 -9 -10
-20 -10 -11 0 -20 5 -20 10 0 6 9 10 20 10 11 0 20 -4 20 -10z"/>
<path d="M807 814 c-12 -12 3 -22 24 -17 16 4 17 8 7 14 -16 10 -23 11 -31 3z"/>
<path d="M45 241 c-16 -16 -6 -129 12 -135 22 -9 33 2 33 30 0 15 6 24 15 24
9 0 15 -9 15 -24 0 -25 27 -43 42 -28 5 5 8 38 6 73 -3 56 -5 64 -23 64 -14 0
-21 -8 -23 -27 -4 -31 -32 -39 -32 -10 0 17 -18 42 -30 42 -3 0 -10 -4 -15 -9z"/>
<path d="M235 242 c-18 -12 -48 -123 -37 -134 7 -7 15 -3 24 11 14 24 48 29
48 7 0 -16 27 -29 41 -20 28 17 -24 145 -58 144 -5 0 -13 -4 -18 -8z m25 -63
c0 -5 -4 -9 -10 -9 -5 0 -10 7 -10 16 0 8 5 12 10 9 6 -3 10 -10 10 -16z"/>
<path d="M361 241 c-23 -6 -25 -11 -22 -66 3 -65 11 -81 35 -72 12 5 16 20 16
57 0 37 4 50 14 50 11 0 16 -15 18 -52 3 -45 6 -53 23 -53 18 0 20 8 23 66 l3
66 -32 7 c-36 7 -45 7 -78 -3z"/>
<path d="M508 243 c-25 -6 -26 -128 -2 -137 21 -8 34 1 34 25 0 12 7 19 19 19
23 0 51 25 51 46 0 8 -9 23 -20 34 -19 19 -44 23 -82 13z m52 -53 c0 -10 -4
-22 -10 -25 -6 -4 -10 7 -10 25 0 18 4 29 10 25 6 -3 10 -15 10 -25z"/>
<path d="M646 229 c-34 -27 -35 -71 -1 -104 30 -30 54 -31 89 -4 19 15 26 30
26 54 0 36 -36 75 -70 75 -10 0 -29 -9 -44 -21z m59 -55 c0 -28 -4 -39 -15
-39 -16 0 -26 45 -16 72 11 28 31 7 31 -33z"/>
<path d="M784 240 c-5 -5 -7 -37 -4 -72 4 -50 9 -64 23 -66 10 -2 21 5 26 20
6 13 10 18 10 11 1 -21 40 -36 57 -22 13 10 12 15 -6 34 -23 25 -25 43 -5 69
8 10 12 23 9 27 -8 14 -34 -2 -49 -30 -13 -23 -14 -24 -15 -6 0 20 -17 45 -30
45 -3 0 -10 -4 -16 -10z"/>
<path d="M965 242 c-9 -6 -35 -88 -39 -121 -2 -23 25 -25 31 -2 7 27 30 27 52
-1 11 -13 24 -19 34 -15 15 5 15 11 2 52 -23 79 -51 109 -80 87z m21 -69 c-10
-10 -19 5 -10 18 6 11 8 11 12 0 2 -7 1 -15 -2 -18z"/>
<path d="M1059 234 c-13 -16 -4 -34 17 -34 10 0 14 -12 14 -44 0 -31 5 -46 16
-50 25 -10 34 2 34 48 0 36 4 45 21 49 13 3 19 12 17 22 -4 22 -102 29 -119 9z"/>
</g>
</svg>
