<svg width="64" height="64" viewBox="0 0 64 64" fill="none" xmlns="http://www.w3.org/2000/svg">
<g clip-path="url(#clip0_2075_718)">
<path d="M4.57338 4.56934V31.9979C4.57338 41.1408 13.7162 45.7122 25.1448 45.7122C36.5734 45.7122 45.7162 41.1408 45.7162 31.9979H54.8591C59.4305 31.9979 64.002 27.4265 64.002 22.8551V18.2836C64.002 13.7122 59.4305 9.14076 54.8591 9.14076H45.7162V4.56934H4.57338ZM45.7162 14.8551H53.7162C56.769 14.8551 58.2877 17.428 58.2877 20.5693C58.2877 23.7107 56.513 26.2836 53.7162 26.2836H45.7162V14.8551ZM0.00195312 50.2836C0.00195312 54.8551 4.57338 59.4265 9.14481 59.4265H41.1448C45.7162 59.4265 50.2877 54.8551 50.2877 50.2836H0.00195312Z" fill="white"/>
</g>
<defs>
<clipPath id="clip0_2075_718">
<rect width="64" height="64" fill="white"/>
</clipPath>
</defs>
</svg>
