<svg width="65" height="64" viewBox="0 0 65 64" fill="none" xmlns="http://www.w3.org/2000/svg">
<g clip-path="url(#clip0_2075_602)">
<path d="M58.9847 48.5513V30.3445C58.9847 19.0882 49.8239 9.93066 38.5643 9.93066H26.4396C15.18 9.93066 6.01919 19.0882 6.01919 30.3445V48.5513H0.501953V50.7582H7.12264H8.22609H11.5364V52.9651C11.5364 53.5742 12.0297 54.0686 12.6399 54.0686H15.9502H18.1571H19.2606H21.4675H24.7778C25.388 54.0686 25.8813 53.5742 25.8813 52.9651V50.7582H39.1226V52.9651C39.1226 53.5742 39.6159 54.0686 40.2261 54.0686H43.5364H45.7433H46.8468H49.0537H52.364C52.9742 54.0686 53.4675 53.5742 53.4675 52.9651V50.7582H56.7778H57.8813H64.502V48.5513H58.9847ZM23.6744 51.8617H21.4675V48.5513H19.2606V51.8617H18.1571V48.5513H15.9502V51.8617H13.7433V50.7582V49.6548C13.7433 48.4377 14.7353 47.4479 15.9568 47.4479H21.4608C22.6824 47.4479 23.6744 48.4377 23.6744 49.6548V50.7582V51.8617ZM51.2606 51.8617H49.0537V48.5513H46.8468V51.8617H45.7433V48.5513H43.5364V51.8617H41.3295V50.7582V49.6548C41.3295 48.4377 42.3215 47.4479 43.5431 47.4479H49.0471C50.2686 47.4479 51.2606 48.4377 51.2606 49.6548V50.7582V51.8617ZM53.3108 48.5513C52.8164 46.6534 51.1017 45.241 49.0471 45.241H43.5431C41.4895 45.241 39.7737 46.6534 39.2793 48.5513H25.7246C25.2302 46.6534 23.5144 45.241 21.4608 45.241H15.9568C13.9033 45.241 12.1875 46.6534 11.6931 48.5513H8.22609V30.3445C8.22609 20.3053 16.396 12.1376 26.4396 12.1376H38.5643C48.6079 12.1376 56.7778 20.3053 56.7778 30.3445V48.5513H53.3108Z" fill="white"/>
<path d="M23.6754 28.6895C20.0241 28.6895 17.0547 31.6588 17.0547 35.3101V36.4136H19.2616V35.3101C19.2616 32.8759 21.2412 30.8963 23.6754 30.8963C24.8064 30.8963 25.8282 31.3355 26.6105 32.0373C25.5722 32.2172 24.7788 33.1187 24.7788 34.2067C24.7788 35.4238 25.7686 36.4136 26.9857 36.4136C27.3896 36.4136 27.7637 36.2966 28.0892 36.1068V36.4136H30.2961V35.3101C30.2961 31.6588 27.3267 28.6895 23.6754 28.6895Z" fill="white"/>
<path d="M43.5367 28.6895C39.8854 28.6895 36.916 31.6588 36.916 35.3101V36.4136H39.1229V35.3101C39.1229 32.8759 41.1025 30.8963 43.5367 30.8963C44.6677 30.8963 45.6895 31.3355 46.4719 32.0373C45.4335 32.2172 44.6402 33.1187 44.6402 34.2067C44.6402 35.4238 45.6299 36.4136 46.847 36.4136C47.2509 36.4136 47.625 36.2966 47.9505 36.1068V36.4136H50.1574V35.3101C50.1574 31.6588 47.188 28.6895 43.5367 28.6895Z" fill="white"/>
</g>
<defs>
<clipPath id="clip0_2075_602">
<rect width="64" height="64" fill="white" transform="translate(0.5)"/>
</clipPath>
</defs>
</svg>
