<svg width="17" height="16" viewBox="0 0 17 16" fill="none" xmlns="http://www.w3.org/2000/svg">
<g clip-path="url(#clip0_2104_303)">
<path d="M16.1426 8C16.1426 10.1217 15.2997 12.1566 13.7994 13.6569C12.2991 15.1571 10.2643 16 8.14258 16C6.02085 16 3.98601 15.1571 2.48572 13.6569C0.985433 12.1566 0.142578 10.1217 0.142578 8C0.142578 5.87827 0.985433 3.84344 2.48572 2.34315C3.98601 0.842855 6.02085 0 8.14258 0C10.2643 0 12.2991 0.842855 13.7994 2.34315C15.2997 3.84344 16.1426 5.87827 16.1426 8ZM8.14258 3.5C8.14258 3.36739 8.0899 3.24021 7.99613 3.14645C7.90236 3.05268 7.77519 3 7.64258 3C7.50997 3 7.38279 3.05268 7.28902 3.14645C7.19526 3.24021 7.14258 3.36739 7.14258 3.5V9C7.14261 9.08813 7.16593 9.17469 7.21018 9.25091C7.25444 9.32712 7.31805 9.39029 7.39458 9.434L10.8946 11.434C11.0094 11.4961 11.144 11.5108 11.2696 11.4749C11.3951 11.4391 11.5017 11.3556 11.5664 11.2422C11.6312 11.1288 11.6491 10.9946 11.6162 10.8683C11.5834 10.7419 11.5024 10.6334 11.3906 10.566L8.14258 8.71V3.5Z" fill="white"/>
</g>
<defs>
<clipPath id="clip0_2104_303">
<rect width="16" height="16" fill="white" transform="translate(0.142578)"/>
</clipPath>
</defs>
</svg>
