<svg width="64" height="64" viewBox="0 0 64 64" fill="none" xmlns="http://www.w3.org/2000/svg">
<path d="M12.1707 33.0848C11.4443 32.2526 10.1809 32.167 9.34879 32.8934C8.51668 33.6198 8.43103 34.8832 9.15746 35.7152L12.1707 33.0848ZM19.0451 44L17.5384 45.3152C17.9182 45.7504 18.4675 46 19.0451 46C19.6225 46 20.1719 45.7504 20.5517 45.3152L19.0451 44ZM41.5041 21.3153C42.2305 20.4833 42.1449 19.2198 41.3126 18.4934C40.4806 17.767 39.2172 17.8526 38.4908 18.6847L41.5041 21.3153ZM28.0145 30.6848C27.2881 31.5168 27.374 32.7803 28.206 33.5067C29.038 34.2331 30.3014 34.1475 31.0278 33.3152L28.0145 30.6848ZM25.7898 39.3152C26.5162 38.4832 26.4305 37.2198 25.5985 36.4934C24.7664 35.767 23.5029 35.8526 22.7765 36.6848L25.7898 39.3152ZM9.15746 35.7152L17.5384 45.3152L20.5517 42.6848L12.1707 33.0848L9.15746 35.7152ZM20.5517 45.3152L25.7898 39.3152L22.7765 36.6848L17.5384 42.6848L20.5517 45.3152ZM31.0278 33.3152L36.266 27.3152L33.2526 24.6847L28.0145 30.6848L31.0278 33.3152ZM36.266 27.3152L41.5041 21.3153L38.4908 18.6847L33.2526 24.6847L36.266 27.3152Z" fill="white"/>
<path d="M53.334 20.167L41.9052 32.167M29.334 42.667L30.4764 44.167L36.1908 38.167" stroke="white" stroke-width="4" stroke-linecap="round" stroke-linejoin="round"/>
</svg>
