<svg width="64" height="64" viewBox="0 0 64 64" fill="none" xmlns="http://www.w3.org/2000/svg">
<path d="M48.9113 0H15.0917C13.851 0 12.8457 1.00529 12.8457 2.24596V61.754C12.8457 62.9947 13.851 64 15.0917 64H48.9116C50.1523 64 51.1576 62.9947 51.1576 61.754V2.24596C51.1573 1.00529 50.152 0 48.9113 0ZM46.6654 59.5081H17.3376V4.49192H46.6657L46.6654 59.5081Z" fill="white"/>
<path d="M22.7714 13.1521H41.232C42.4726 13.1521 43.4779 12.1468 43.4779 10.9061C43.4779 9.66575 42.4726 8.66016 41.232 8.66016H22.7714C21.5307 8.66016 20.5254 9.66575 20.5254 10.9061C20.5254 12.1468 21.531 13.1521 22.7714 13.1521Z" fill="white"/>
<path d="M22.7714 21.0495H41.232C42.4726 21.0495 43.4779 20.0442 43.4779 18.8036C43.4779 17.5629 42.4726 16.5576 41.232 16.5576H22.7714C21.5307 16.5576 20.5254 17.5629 20.5254 18.8036C20.5254 20.0442 21.531 21.0495 22.7714 21.0495Z" fill="white"/>
<path d="M21.1812 30.4127C20.7647 30.829 20.5254 31.4066 20.5254 31.9999C20.5254 32.5898 20.765 33.1708 21.1812 33.587C21.6002 34.0063 22.1784 34.2458 22.7714 34.2458C23.3613 34.2458 23.9392 34.0063 24.3585 33.587C24.7777 33.1678 25.0173 32.5898 25.0173 31.9999C25.0173 31.4099 24.7777 30.829 24.3585 30.4127C23.9395 29.9935 23.3613 29.7539 22.7714 29.7539C22.1784 29.7536 21.6002 29.9932 21.1812 30.4127Z" fill="white"/>
<path d="M22.7714 55.3396H41.232C42.4726 55.3396 43.4779 54.3343 43.4779 53.0936C43.4779 51.8529 42.4726 50.8477 41.232 50.8477H22.7714C21.5307 50.8477 20.5254 51.8529 20.5254 53.0936C20.5254 54.334 21.531 55.3396 22.7714 55.3396Z" fill="white"/>
<path d="M22.7714 47.4421H41.232C42.4726 47.4421 43.4779 46.4368 43.4779 45.1962C43.4779 43.9555 42.4726 42.9502 41.232 42.9502H22.7714C21.5307 42.9502 20.5254 43.9555 20.5254 45.1962C20.5254 46.4365 21.531 47.4421 22.7714 47.4421Z" fill="white"/>
</svg>
