<svg width="48" height="48" viewBox="0 0 48 48" fill="none" xmlns="http://www.w3.org/2000/svg">
<g clip-path="url(#clip0_2122_277)">
<mask id="mask0_2122_277" style="mask-type:luminance" maskUnits="userSpaceOnUse" x="0" y="0" width="48" height="48">
<path d="M24 48C37.2548 48 48 37.2548 48 24C48 10.7452 37.2548 0 24 0C10.7452 0 0 10.7452 0 24C0 37.2548 10.7452 48 24 48Z" fill="white"/>
</mask>
<g mask="url(#mask0_2122_277)">
<path d="M10.3125 97.125C38.7897 97.125 61.875 74.0397 61.875 45.5625C61.875 17.0853 38.7897 -6 10.3125 -6C-18.1647 -6 -41.25 17.0853 -41.25 45.5625C-41.25 74.0397 -18.1647 97.125 10.3125 97.125Z" fill="url(#paint0_radial_2122_277)"/>
</g>
<path d="M30.75 19.125C31.7855 19.125 32.625 18.2855 32.625 17.25C32.625 16.2145 31.7855 15.375 30.75 15.375C29.7145 15.375 28.875 16.2145 28.875 17.25C28.875 18.2855 29.7145 19.125 30.75 19.125Z" fill="white"/>
<path d="M24 18C22.8133 18 21.6533 18.3519 20.6666 19.0112C19.6799 19.6705 18.9109 20.6075 18.4567 21.7039C18.0026 22.8003 17.8838 24.0067 18.1153 25.1705C18.3468 26.3344 18.9182 27.4035 19.7574 28.2426C20.5965 29.0818 21.6656 29.6532 22.8295 29.8847C23.9933 30.1162 25.1997 29.9974 26.2961 29.5433C27.3925 29.0892 28.3295 28.3201 28.9888 27.3334C29.6481 26.3467 30 25.1867 30 24C30 22.4087 29.3679 20.8826 28.2426 19.7574C27.1174 18.6321 25.5913 18 24 18ZM24 27C23.4067 27 22.8266 26.8241 22.3333 26.4944C21.8399 26.1648 21.4554 25.6962 21.2284 25.1481C21.0013 24.5999 20.9419 23.9967 21.0576 23.4147C21.1734 22.8328 21.4591 22.2982 21.8787 21.8787C22.2982 21.4591 22.8328 21.1734 23.4147 21.0576C23.9967 20.9419 24.5999 21.0013 25.1481 21.2284C25.6962 21.4554 26.1648 21.8399 26.4944 22.3333C26.8241 22.8266 27 23.4067 27 24C27 24.7956 26.6839 25.5587 26.1213 26.1213C25.5587 26.6839 24.7957 27 24 27Z" fill="white"/>
<path d="M31.5 12H16.5C14.0147 12 12 14.0147 12 16.5V31.5C12 33.9853 14.0147 36 16.5 36H31.5C33.9853 36 36 33.9853 36 31.5V16.5C36 14.0147 33.9853 12 31.5 12Z" stroke="white" stroke-width="3" stroke-miterlimit="10"/>
</g>
<defs>
<radialGradient id="paint0_radial_2122_277" cx="0" cy="0" r="1" gradientUnits="userSpaceOnUse" gradientTransform="translate(10.3125 45.5625) scale(51.5625)">
<stop stop-color="#FFD676"/>
<stop offset="0.25" stop-color="#F2A454"/>
<stop offset="0.38" stop-color="#F05C3C"/>
<stop offset="0.7" stop-color="#C22F86"/>
<stop offset="0.96" stop-color="#6666AD"/>
<stop offset="0.99" stop-color="#5C6CB2"/>
</radialGradient>
<clipPath id="clip0_2122_277">
<rect width="48" height="48" fill="white"/>
</clipPath>
</defs>
</svg>
