<svg width="25" height="24" viewBox="0 0 25 24" fill="none" xmlns="http://www.w3.org/2000/svg">
<path d="M12.1426 12.5C11.2143 12.5 10.3241 12.8687 9.6677 13.5251C9.01133 14.1815 8.64258 15.0717 8.64258 16C8.64258 16.9283 9.01133 17.8185 9.6677 18.4749C10.3241 19.1313 11.2143 19.5 12.1426 19.5C13.0708 19.5 13.9611 19.1313 14.6175 18.4749C15.2738 17.8185 15.6426 16.9283 15.6426 16C15.6426 15.0717 15.2738 14.1815 14.6175 13.5251C13.9611 12.8687 13.0708 12.5 12.1426 12.5ZM10.6426 16C10.6426 15.6022 10.8006 15.2206 11.0819 14.9393C11.3632 14.658 11.7448 14.5 12.1426 14.5C12.5404 14.5 12.9219 14.658 13.2032 14.9393C13.4845 15.2206 13.6426 15.6022 13.6426 16C13.6426 16.3978 13.4845 16.7794 13.2032 17.0607C12.9219 17.342 12.5404 17.5 12.1426 17.5C11.7448 17.5 11.3632 17.342 11.0819 17.0607C10.8006 16.7794 10.6426 16.3978 10.6426 16Z" fill="white"/>
<path d="M17.6686 5.11618L14.4896 0.65918L2.80058 9.99718L2.15258 9.99018V10.0002H1.64258V22.0002H22.6426V10.0002H21.6806L19.7666 4.40118L17.6686 5.11618ZM19.5676 10.0002H9.53958L17.0086 7.45418L18.5306 6.96718L19.5676 10.0002ZM15.6926 5.79018L7.98258 8.41818L14.0886 3.54018L15.6926 5.79018ZM3.64258 18.1692V13.8292C4.06447 13.6797 4.44769 13.4379 4.76427 13.1215C5.08086 12.8051 5.32284 12.422 5.47258 12.0002H18.8126C18.9622 12.4221 19.2042 12.8054 19.5208 13.122C19.8374 13.4386 20.2206 13.6805 20.6426 13.8302V18.1702C20.2206 18.3198 19.8374 18.5618 19.5208 18.8784C19.2042 19.195 18.9622 19.5782 18.8126 20.0002H5.47458C5.32476 19.5779 5.08254 19.1943 4.7656 18.8775C4.44865 18.5608 4.06498 18.3188 3.64258 18.1692Z" fill="white"/>
</svg>
