<svg width="64" height="64" viewBox="0 0 64 64" fill="none" xmlns="http://www.w3.org/2000/svg">
<g clip-path="url(#clip0_2075_593)">
<path d="M58.666 18.667H5.33268C4.62544 18.667 3.94716 18.9479 3.44706 19.448C2.94697 19.9481 2.66602 20.6264 2.66602 21.3337V42.667C2.66602 43.3742 2.94697 44.0525 3.44706 44.5526C3.94716 45.0527 4.62544 45.3337 5.33268 45.3337H58.666C59.3733 45.3337 60.0515 45.0527 60.5516 44.5526C61.0517 44.0525 61.3327 43.3742 61.3327 42.667V21.3337C61.3327 20.6264 61.0517 19.9481 60.5516 19.448C60.0515 18.9479 59.3733 18.667 58.666 18.667ZM23.066 38.667H19.7327L15.7327 32.0003L14.7993 30.267V38.667H11.5993V25.3337H14.9327L18.9327 32.0003L19.7327 33.7337H19.866C19.866 33.7337 19.7327 32.1337 19.7327 31.6003V25.3337H23.066V38.667ZM35.1993 38.667H24.9327V25.3337H35.066V28.0003H28.266V30.4003H34.1327V33.067H28.266V35.867H35.1993V38.667ZM49.7327 38.667H46.3993L45.066 32.267C44.7994 31.2003 44.5327 29.7337 44.5327 29.7337C44.5327 29.7337 44.266 31.2003 44.1327 32.267L42.666 38.667H39.466L35.7327 25.3337H39.066L40.3993 30.9337C40.6919 32.0295 40.9146 33.1429 41.066 34.267L41.7327 31.067L43.066 25.3337H46.1327L47.3327 31.067L47.9994 34.267L48.666 30.9337L49.9994 25.3337H53.3327L49.7327 38.667Z" fill="white"/>
</g>
<defs>
<clipPath id="clip0_2075_593">
<rect width="64" height="64" fill="white"/>
</clipPath>
</defs>
</svg>
