<svg width="25" height="24" viewBox="0 0 25 24" fill="none" xmlns="http://www.w3.org/2000/svg">
<path d="M16.1426 11C17.8026 11 19.1326 9.66 19.1326 8C19.1326 6.34 17.8026 5 16.1426 5C14.4826 5 13.1426 6.34 13.1426 8C13.1426 9.66 14.4826 11 16.1426 11ZM8.14258 11C9.80258 11 11.1326 9.66 11.1326 8C11.1326 6.34 9.80258 5 8.14258 5C6.48258 5 5.14258 6.34 5.14258 8C5.14258 9.66 6.48258 11 8.14258 11ZM8.14258 13C5.81258 13 1.14258 14.17 1.14258 16.5V18C1.14258 18.55 1.59258 19 2.14258 19H14.1426C14.6926 19 15.1426 18.55 15.1426 18V16.5C15.1426 14.17 10.4726 13 8.14258 13ZM16.1426 13C15.8526 13 15.5226 13.02 15.1726 13.05C15.1926 13.06 15.2026 13.08 15.2126 13.09C16.3526 13.92 17.1426 15.03 17.1426 16.5V18C17.1426 18.35 17.0726 18.69 16.9626 19H22.1426C22.6926 19 23.1426 18.55 23.1426 18V16.5C23.1426 14.17 18.4726 13 16.1426 13Z" fill="white"/>
</svg>
