<svg width="25" height="25" viewBox="0 0 25 25" fill="none" xmlns="http://www.w3.org/2000/svg">
<path d="M6.05633 12.8695L9.07448 9.19211C9.38247 8.79612 9.53647 8.59811 9.61718 8.37605C9.68859 8.17956 9.71813 7.97031 9.70392 7.76172C9.68785 7.526 9.59469 7.2931 9.40838 6.82731L8.69768 5.05057C8.42196 4.36126 8.28409 4.0166 8.04627 3.79069C7.8367 3.59162 7.57409 3.45735 7.29001 3.40401C6.96762 3.34347 6.6075 3.43351 5.88725 3.61357L3.91992 4.10547C3.91992 14.1055 10.9196 21.1055 20.9199 21.1055L21.4115 19.1379C21.5916 18.4176 21.6816 18.0575 21.6211 17.7351C21.5677 17.4511 21.4335 17.1884 21.2344 16.9789C21.0085 16.741 20.6638 16.6032 19.9745 16.3275L18.389 15.6932C17.8576 15.4807 17.5919 15.3744 17.327 15.3663C17.0928 15.3591 16.8603 15.4068 16.6479 15.5056C16.4076 15.6175 16.2053 15.8198 15.8006 16.2245L12.7473 19.2788M13.9196 7.10547C14.8964 7.29604 15.794 7.77373 16.4977 8.47741C17.2014 9.18108 17.6791 10.0787 17.8696 11.0555M13.9196 3.10547C15.9489 3.33091 17.8412 4.23964 19.2859 5.68248C20.7305 7.12531 21.6416 9.01648 21.8696 11.0455" stroke="white" stroke-width="2" stroke-linecap="round" stroke-linejoin="round"/>
</svg>
