<svg width="64" height="64" viewBox="0 0 64 64" fill="none" xmlns="http://www.w3.org/2000/svg">
<g clip-path="url(#clip0_2075_709)">
<path fill-rule="evenodd" clip-rule="evenodd" d="M57.6 35.2029C57.6 33.4365 56.1664 32.0029 54.4 32.0029H9.6C7.8336 32.0029 6.4 33.4365 6.4 35.2029C6.4 36.9693 7.8336 38.4029 9.6 38.4029H54.4C56.1664 38.4029 57.6 36.9693 57.6 35.2029ZM13.136 25.6029H49.808C47.2384 16.8125 39.328 12.8029 31.472 12.8029C23.6192 12.8029 15.7056 16.8125 13.136 25.6029ZM64 32.0029V38.4029C64 41.9389 60.608 44.8029 57.072 44.8029H5.872C2.3392 44.8029 0 41.9389 0 38.4029V32.0029C0 28.8029 2.08961 25.6029 6.56321 25.6029C8.96641 14.5725 16 7.72799 28.8 6.59199V0.00292969H35.2V6.59199C44.8 7.72799 53.9776 14.5725 56.3808 25.6029C61.4368 25.6029 64 28.6941 64 32.0029ZM54.4 51.2029C52.6336 51.2029 51.2 52.6365 51.2 54.4029V60.8029C51.2 62.5693 52.6336 64.0029 54.4 64.0029C56.1664 64.0029 57.6 62.5693 57.6 60.8029V54.4029C57.6 52.6365 56.1664 51.2029 54.4 51.2029ZM9.6 51.2029C7.8336 51.2029 6.4 52.6365 6.4 54.4029V60.8029C6.4 62.5693 7.8336 64.0029 9.6 64.0029C11.3664 64.0029 12.8 62.5693 12.8 60.8029V54.4029C12.8 52.6365 11.3664 51.2029 9.6 51.2029ZM35.2 54.4029V60.8029C35.2 62.5693 33.7664 64.0029 32 64.0029C30.2336 64.0029 28.8 62.5693 28.8 60.8029V54.4029C28.8 52.6365 30.2336 51.2029 32 51.2029C33.7664 51.2029 35.2 52.6365 35.2 54.4029Z" fill="white"/>
</g>
<defs>
<clipPath id="clip0_2075_709">
<rect width="64" height="64" fill="white"/>
</clipPath>
</defs>
</svg>
