<svg width="64" height="64" viewBox="0 0 64 64" fill="none" xmlns="http://www.w3.org/2000/svg">
<g clip-path="url(#clip0_2095_142)">
<path d="M31.998 0C14.3533 0 -0.00195312 14.3552 -0.00195312 32C-0.00195312 49.6448 14.3533 64 31.998 64C49.6428 64 63.998 49.6448 63.998 32C63.998 14.3552 49.643 0 31.998 0ZM31.998 60.5405C24.1586 60.5405 17.048 57.3629 11.8847 52.229C9.82283 50.1788 8.07253 47.816 6.70971 45.2192C4.63422 41.2648 3.45755 36.7676 3.45755 32C3.45755 16.2627 16.2608 3.45951 31.998 3.45951C39.4626 3.45951 46.2657 6.34128 51.3568 11.0492C53.9964 13.4899 56.1761 16.421 57.7478 19.6971C59.5359 23.4245 60.5385 27.5973 60.5385 32C60.5385 47.7373 47.7353 60.5405 31.998 60.5405Z" fill="white"/>
<path d="M51.8895 32H48.43C48.43 41.0812 41.007 48.4324 31.9258 48.4324V51.8919C42.953 51.8919 51.8895 43.0272 51.8895 32Z" fill="white"/>
<path d="M21.3306 28.3243C23.2412 28.3243 24.7901 26.7754 24.7901 24.8648C24.7901 22.9541 23.2412 21.4053 21.3306 21.4053C19.42 21.4053 17.8711 22.9541 17.8711 24.8648C17.8711 26.7754 19.42 28.3243 21.3306 28.3243Z" fill="white"/>
<path d="M42.7369 28.3243C44.6475 28.3243 46.1964 26.7754 46.1964 24.8648C46.1964 22.9541 44.6475 21.4053 42.7369 21.4053C40.8262 21.4053 39.2773 22.9541 39.2773 24.8648C39.2773 26.7754 40.8262 28.3243 42.7369 28.3243Z" fill="white"/>
</g>
<defs>
<clipPath id="clip0_2095_142">
<rect width="64" height="64" fill="white"/>
</clipPath>
</defs>
</svg>
