<svg width="48" height="48" viewBox="0 0 48 48" fill="none" xmlns="http://www.w3.org/2000/svg">
<g clip-path="url(#clip0_2122_231)">
<path d="M24 0C17.6362 0 11.5275 2.53013 7.03125 7.02938C2.53036 11.5304 0.00124676 17.6347 0 24C0 30.3626 2.53125 36.4714 7.03125 40.9706C11.5275 45.4699 17.6362 48 24 48C30.3638 48 36.4725 45.4699 40.9688 40.9706C45.4688 36.4714 48 30.3626 48 24C48 17.6374 45.4688 11.5286 40.9688 7.02938C36.4725 2.53013 30.3638 0 24 0Z" fill="url(#paint0_linear_2122_231)"/>
<path d="M10.8637 23.7461C17.8612 20.6981 22.5262 18.6885 24.8587 17.7176C31.5262 14.9452 32.9099 14.4637 33.8137 14.4474C34.0124 14.4442 34.4549 14.4933 34.7437 14.7268C34.9837 14.9237 35.0512 15.1899 35.0849 15.3768C35.1149 15.5636 35.1562 15.9892 35.1224 16.3215C34.7624 20.1165 33.1987 29.3257 32.4037 33.5763C32.0699 35.3748 31.4062 35.9778 30.7649 36.0367C29.3699 36.165 28.3124 35.1157 26.9624 34.2311C24.8512 32.8462 23.6587 31.9845 21.6074 30.6333C19.2374 29.0718 20.7749 28.2135 22.1249 26.811C22.4774 26.4438 28.6199 20.8582 28.7362 20.3516C28.7512 20.2882 28.7662 20.052 28.6237 19.9275C28.4849 19.8026 28.2787 19.8453 28.1287 19.8791C27.9149 19.9271 24.5437 22.1576 18.0037 26.5702C17.0474 27.228 16.1812 27.5486 15.4012 27.5317C14.5462 27.5133 12.8962 27.0472 11.6699 26.649C10.1699 26.1603 8.97369 25.902 9.07869 25.0721C9.13119 24.6401 9.72744 24.198 10.8637 23.7461Z" fill="white"/>
</g>
<defs>
<linearGradient id="paint0_linear_2122_231" x1="2400" y1="0" x2="2400" y2="4800" gradientUnits="userSpaceOnUse">
<stop stop-color="#2AABEE"/>
<stop offset="1" stop-color="#229ED9"/>
</linearGradient>
<clipPath id="clip0_2122_231">
<rect width="48" height="48" fill="white"/>
</clipPath>
</defs>
</svg>
