<svg width="48" height="48" viewBox="0 0 48 48" fill="none" xmlns="http://www.w3.org/2000/svg">
<g clip-path="url(#clip0_2122_238)">
<path d="M24 48C37.2548 48 48 37.2548 48 24C48 10.7452 37.2548 0 24 0C10.7452 0 0 10.7452 0 24C0 37.2548 10.7452 48 24 48Z" fill="#6F3FAA"/>
<path d="M34.4114 13.1655C28.5696 11.7546 22.7175 10.1042 16.7266 12.201C12.8478 13.6556 12.8478 17.8576 13.0095 21.4132C13.0095 22.3828 11.8782 23.6758 12.363 24.8071C13.3326 28.0394 14.1407 31.2717 17.5347 32.8879C18.0195 33.2111 17.5347 33.8575 17.8579 34.3424C17.6963 34.3424 17.373 34.5041 17.373 34.6657C17.373 35.4403 17.7207 36.6252 17.4898 37.3891L27.8028 47.6979C38.405 46.0094 46.6914 37.379 47.8573 26.6115L34.4114 13.1655Z" fill="#512D84"/>
<path d="M36.6958 16.8669L36.688 16.8352C36.0467 14.2428 33.1556 11.461 30.5006 10.8823L30.4707 10.8761C26.1764 10.0569 21.8222 10.0569 17.5288 10.8761L17.498 10.8823C14.8439 11.461 11.9528 14.243 11.3107 16.8352L11.3035 16.8669C10.5108 20.4873 10.5108 24.1589 11.3035 27.7792L11.3107 27.8109C11.9255 30.2927 14.6012 32.9467 17.1571 33.6766V36.5705C17.1571 37.6179 18.4335 38.1323 19.1593 37.3764L22.0914 34.3287C22.7274 34.3642 23.3636 34.3841 23.9997 34.3841C26.1613 34.3841 28.324 34.1796 30.4706 33.7701L30.5005 33.764C33.1555 33.1852 36.0466 30.4033 36.6879 27.811L36.6957 27.7793C37.4885 24.1589 37.4885 20.4875 36.6958 16.8669ZM34.3754 27.2543C33.9473 28.9457 31.7522 31.0483 30.0081 31.4368C27.7248 31.871 25.4233 32.0566 23.1242 31.9929C23.0785 31.9916 23.0345 32.0094 23.0027 32.0422C22.6764 32.3771 20.8619 34.2399 20.8619 34.2399L18.5849 36.5769C18.4184 36.7505 18.1259 36.6323 18.1259 36.3928V31.5988C18.1259 31.5196 18.0694 31.4524 17.9916 31.437C17.9911 31.4368 17.9907 31.4368 17.9903 31.4367C16.2461 31.0482 14.0518 28.9456 13.6229 27.2542C12.9094 23.9818 12.9094 20.6644 13.6229 17.3919C14.0518 15.7006 16.2461 13.598 17.9903 13.2095C21.978 12.451 26.0213 12.451 30.0082 13.2095C31.7531 13.598 33.9474 15.7006 34.3755 17.3919C35.0898 20.6645 35.0898 23.9819 34.3754 27.2543Z" fill="white"/>
<path d="M27.7938 29.4674C27.5257 29.3859 27.2702 29.3313 27.0328 29.2329C24.5736 28.2126 22.3105 26.8964 20.5179 24.8788C19.4985 23.7315 18.7005 22.4361 18.0261 21.0653C17.7062 20.4153 17.4367 19.7398 17.1619 19.0685C16.9114 18.4565 17.2804 17.8243 17.6689 17.363C18.0335 16.9302 18.5027 16.5991 19.0109 16.3548C19.4074 16.1643 19.7985 16.2742 20.0882 16.6103C20.7143 17.3371 21.2895 18.1009 21.7551 18.9434C22.0415 19.4615 21.963 20.0949 21.4439 20.4475C21.3177 20.5332 21.2027 20.6339 21.0853 20.7306C20.9821 20.8155 20.8852 20.9012 20.8145 21.016C20.6854 21.2261 20.6792 21.4741 20.7623 21.7025C21.4023 23.4614 22.4811 24.8292 24.2516 25.566C24.5349 25.6838 24.8193 25.821 25.1458 25.783C25.6923 25.7192 25.8693 25.1195 26.2524 24.8063C26.6267 24.5002 27.1052 24.4962 27.5085 24.7514C27.9119 25.0068 28.3028 25.2807 28.6915 25.5577C29.073 25.8296 29.4528 26.0954 29.8047 26.4054C30.1431 26.7034 30.2596 27.0944 30.069 27.4987C29.7203 28.2394 29.2126 28.8555 28.4805 29.2488C28.2738 29.3597 28.0269 29.3956 27.7938 29.4674C28.0269 29.3956 27.5257 29.3859 27.7938 29.4674Z" fill="white"/>
<path d="M24.0054 15.5071C27.2219 15.5973 29.8639 17.7319 30.43 20.9119C30.5265 21.4538 30.5608 22.0077 30.6038 22.5577C30.6219 22.789 30.4908 23.0087 30.2412 23.0118C29.9834 23.0149 29.8674 22.7991 29.8506 22.568C29.8175 22.1103 29.7945 21.6505 29.7314 21.1967C29.3985 18.8006 27.4879 16.8182 25.1029 16.3929C24.7439 16.3288 24.3768 16.3121 24.0131 16.2739C23.7834 16.2498 23.4824 16.2359 23.4315 15.9502C23.3889 15.7107 23.591 15.52 23.8191 15.5077C23.8809 15.504 23.9432 15.5069 24.0054 15.5071C27.2221 15.5973 23.9432 15.5069 24.0054 15.5071Z" fill="white"/>
<path d="M28.8948 21.8453C28.8895 21.8855 28.8868 21.9799 28.8631 22.0688C28.7778 22.3916 28.2881 22.4321 28.1755 22.1063C28.142 22.0096 28.1371 21.8996 28.1369 21.7955C28.1357 21.1143 27.9877 20.4337 27.6441 19.8409C27.291 19.2316 26.7513 18.7196 26.1186 18.4096C25.7359 18.2223 25.3222 18.1058 24.9028 18.0365C24.7195 18.0061 24.5342 17.9878 24.35 17.9621C24.1268 17.9311 24.0076 17.7889 24.0182 17.569C24.0281 17.3629 24.1787 17.2145 24.4034 17.2273C25.1415 17.2691 25.8545 17.4289 26.5109 17.7763C27.8453 18.4831 28.6077 19.5986 28.8302 21.0881C28.8403 21.1557 28.8564 21.2225 28.8616 21.2902C28.8741 21.4572 28.8821 21.6246 28.8948 21.8453C28.8895 21.8853 28.8821 21.6246 28.8948 21.8453Z" fill="white"/>
<path d="M26.8938 21.7671C26.6247 21.772 26.4807 21.6229 26.4529 21.3764C26.4337 21.2044 26.4183 21.0301 26.3772 20.8626C26.2964 20.5329 26.1212 20.2275 25.8439 20.0254C25.713 19.9301 25.5646 19.8606 25.4093 19.8156C25.2119 19.7585 25.0068 19.7743 24.81 19.7261C24.5962 19.6737 24.4779 19.5004 24.5115 19.2999C24.5421 19.1173 24.7197 18.9748 24.9192 18.9893C26.1663 19.0793 27.0576 19.724 27.1848 21.1921C27.1939 21.2957 27.2044 21.4051 27.1814 21.5044C27.1419 21.6738 27.0162 21.7589 26.8938 21.7671C27.0162 21.7589 26.6247 21.7719 26.8938 21.7671Z" fill="white"/>
<path d="M36.6952 16.8671L36.6873 16.8354C36.3279 15.3822 35.2612 13.8696 33.9256 12.7188L32.1201 14.3189C33.1937 15.1743 34.1136 16.3594 34.375 17.392C35.0893 20.6645 35.0893 23.9819 34.375 27.2545C33.9468 28.9458 31.7517 31.0485 30.0076 31.437C27.7243 31.8712 25.4229 32.0567 23.1237 31.9931C23.078 31.9918 23.034 32.0096 23.0023 32.0424C22.6759 32.3773 20.8615 34.2401 20.8615 34.2401L18.5845 36.5771C18.418 36.7507 18.1255 36.6327 18.1255 36.393V31.599C18.1255 31.5197 18.0689 31.4525 17.9911 31.4372C17.9907 31.4372 17.9903 31.437 17.9898 31.437C16.9986 31.2162 15.8624 30.4415 14.9872 29.5037L13.2031 31.0847C14.3173 32.2967 15.7544 33.2766 17.1564 33.6769V36.5708C17.1564 37.6183 18.4328 38.1327 19.1586 37.3768L22.0906 34.3291C22.7266 34.3646 23.3627 34.3845 23.999 34.3845C26.1606 34.3845 28.3232 34.18 30.4699 33.7705L30.4998 33.7644C33.1548 33.1857 36.0459 30.4039 36.6871 27.8115L36.695 27.7798C37.4878 24.1591 37.4878 20.4876 36.6952 16.8671Z" fill="#D1D1D1"/>
<path d="M27.7942 29.4677C27.526 29.3862 28.0272 29.3959 27.7942 29.4677V29.4677Z" fill="white"/>
<path d="M29.8038 26.4055C29.452 26.0957 29.072 25.8297 28.6907 25.5578C28.302 25.2808 27.911 25.0069 27.5076 24.7515C27.1044 24.4963 26.626 24.5003 26.2516 24.8064C25.8685 25.1196 25.6916 25.7193 25.1449 25.7831C24.8186 25.8211 24.5341 25.6838 24.2507 25.5661C23.1615 25.1129 22.335 24.4199 21.7103 23.5449L20.3828 24.7215C20.4279 24.7737 20.4709 24.8273 20.5168 24.8789C22.3095 26.8965 24.5727 28.2127 27.0317 29.233C27.2689 29.3315 27.5246 29.3862 27.7927 29.4675C27.5246 29.386 28.026 29.3958 27.7927 29.4675C28.026 29.3958 28.2727 29.3597 28.4796 29.2489C29.2119 28.8555 29.7194 28.2394 30.0681 27.4987C30.2588 27.0945 30.1423 26.7035 29.8038 26.4055Z" fill="#D1D1D1"/>
<path d="M24.0059 15.5078C24.0086 15.5078 24.0112 15.5081 24.0139 15.5081C24.1924 15.5145 27.0957 15.5944 24.0059 15.5078Z" fill="white"/>
<path d="M28.6187 17.4219L28.0527 17.9235C28.9421 18.7888 29.5555 19.9357 29.7308 21.1978C29.7938 21.6517 29.8169 22.1113 29.85 22.569C29.8668 22.8003 29.9827 23.016 30.2407 23.013C30.4903 23.0099 30.6213 22.7903 30.6032 22.5589C30.5602 22.009 30.526 21.4549 30.4295 20.9131C30.1817 19.5211 29.536 18.3295 28.6187 17.4219Z" fill="#D1D1D1"/>
<path d="M28.829 21.0874C28.6669 20.002 28.2166 19.1162 27.4687 18.4414L26.9043 18.9416C27.1961 19.2006 27.4486 19.5048 27.643 19.8403C27.9866 20.4331 28.1347 21.1137 28.1358 21.7949C28.136 21.899 28.141 22.0091 28.1744 22.1059C28.2872 22.4319 28.7768 22.3915 28.8621 22.0684C28.8857 21.9793 28.8884 21.8849 28.8938 21.8449C28.8808 21.6243 28.8884 21.8851 28.8938 21.8449C28.8808 21.6243 28.873 21.4569 28.8603 21.2896C28.8553 21.2217 28.8391 21.1549 28.829 21.0874Z" fill="#D1D1D1"/>
<path d="M28.8938 21.8456C28.881 21.6249 28.8884 21.8857 28.8938 21.8456V21.8456Z" fill="white"/>
<path d="M26.8938 21.7685C26.898 21.7683 26.902 21.7661 26.9061 21.7656C26.8947 21.7656 26.8773 21.7659 26.8594 21.7666C26.871 21.7668 26.8816 21.7686 26.8938 21.7685Z" fill="white"/>
<path d="M26.8935 21.7676C26.8814 21.7678 26.8707 21.766 26.8591 21.7656C26.8008 21.7672 26.7407 21.7703 26.8935 21.7676Z" fill="white"/>
<path d="M26.9049 21.7656C26.9006 21.7661 26.8966 21.7683 26.8926 21.7685C26.9241 21.7664 26.9214 21.7656 26.9049 21.7656Z" fill="white"/>
<path d="M26.3265 19.4551L25.752 19.9643C25.7836 19.9835 25.8147 20.0036 25.8448 20.0255C26.1221 20.2275 26.2973 20.5329 26.3781 20.8626C26.4192 21.0301 26.4344 21.2043 26.4538 21.3764C26.4803 21.612 26.6141 21.7568 26.8603 21.7653C26.8782 21.7648 26.8958 21.7644 26.907 21.7643C27.0255 21.7512 27.1442 21.6681 27.1822 21.5043C27.2052 21.4052 27.1947 21.2956 27.1856 21.192C27.1141 20.3712 26.8038 19.808 26.3265 19.4551Z" fill="#D1D1D1"/>
</g>
<defs>
<clipPath id="clip0_2122_238">
<rect width="48" height="48" fill="white"/>
</clipPath>
</defs>
</svg>
