<svg width="48" height="48" viewBox="0 0 48 48" fill="none" xmlns="http://www.w3.org/2000/svg">
<g clip-path="url(#clip0_2122_320)">
<path d="M24 48C37.2548 48 48 37.2548 48 24C48 10.7452 37.2548 0 24 0C10.7452 0 0 10.7452 0 24C0 37.2548 10.7452 48 24 48Z" fill="#75B73B"/>
<path d="M33.7731 14.2336C32.3815 13.8856 30.3352 12.6837 29.0106 12.202C23.8388 10.5858 16.8893 11.8787 14.9499 17.8586C14.7883 18.0202 14.4651 18.0202 14.3034 18.0202C10.4246 22.5454 13.0105 28.0404 12.6873 33.0505C12.5769 34.8166 11.6483 36.3783 10.4531 37.6993L20.5108 47.7465C21.6503 47.9125 22.815 47.9999 24.0005 47.9999C35.8538 47.9999 45.6991 39.4063 47.6486 28.1098L33.7731 14.2336Z" fill="#52891D"/>
<path d="M23.3296 10.1664C16.0144 10.5144 10.2417 16.6067 10.2637 23.9299C10.2705 26.1604 10.809 28.2658 11.759 30.1264L10.3006 37.2058C10.2217 37.5889 10.5671 37.9242 10.9475 37.834L17.8846 36.1906C19.6669 37.0785 21.6687 37.5911 23.7873 37.6234C31.2641 37.7377 37.4983 31.8011 37.7316 24.327C37.9812 16.3153 31.369 9.78345 23.3296 10.1664ZM31.607 31.4935C29.5756 33.525 26.8743 34.6439 24.0011 34.6439C22.3189 34.6439 20.708 34.2664 19.2137 33.5221L18.2479 33.0408L13.9944 34.0483L14.8896 29.7024L14.4139 28.7703C13.638 27.2509 13.2446 25.6083 13.2446 23.8874C13.2446 21.0141 14.3635 18.3131 16.395 16.2814C18.4084 14.2679 21.1536 13.1311 24.0013 13.1311C26.8742 13.1311 29.5755 14.25 31.607 16.2814C33.6384 18.3129 34.7573 21.0142 34.7573 23.8871C34.7575 26.7349 33.6205 29.48 31.607 31.4935Z" fill="white"/>
<path d="M30.6684 26.8662L28.0074 26.1023C27.6578 26.0021 27.2809 26.1013 27.026 26.361L26.3752 27.0238C26.1009 27.3036 25.6847 27.3933 25.3215 27.2464C24.0627 26.737 21.4147 24.3825 20.7389 23.2052C20.5435 22.8655 20.5758 22.441 20.8155 22.1306L21.3834 21.3957C21.606 21.1079 21.6528 20.721 21.5058 20.3882L20.3863 17.8562C20.1182 17.2498 19.3432 17.0732 18.8369 17.5015C18.0943 18.1297 17.2131 19.084 17.1062 20.1415C16.9173 22.0059 17.7169 24.3559 20.7401 27.1779C24.2329 30.4383 27.0302 30.8687 28.8516 30.4276C29.8847 30.1776 30.7102 29.1746 31.2309 28.3533C31.5863 27.793 31.3054 27.0493 30.6684 26.8662Z" fill="white"/>
<path d="M33.3747 13.8477L31.2913 15.9831C31.3973 16.0811 31.5029 16.1796 31.6055 16.2823C33.637 18.3137 34.7558 21.015 34.7558 23.8879C34.7558 26.7356 33.6188 29.4807 31.6055 31.4942C29.574 33.5257 26.8727 34.6446 23.9995 34.6446C22.3173 34.6446 20.7065 34.2671 19.2121 33.5228L18.2463 33.0415L13.9928 34.049L14.0808 33.6222L10.3145 37.482C10.3975 37.7317 10.6618 37.9016 10.9458 37.8343L17.8828 36.1909C19.6651 37.0788 21.6669 37.5914 23.7855 37.6238C31.2623 37.7381 37.4967 31.8014 37.7299 24.3273C37.8588 20.1898 36.1574 16.4471 33.3747 13.8477Z" fill="#D1D1D1"/>
<path d="M30.6673 26.8667L28.0063 26.1027C27.6567 26.0025 27.2798 26.1018 27.0249 26.3615L26.3741 27.0243C26.0998 27.304 25.6835 27.3938 25.3203 27.2469C24.5932 26.9526 23.4031 26.0426 22.3967 25.0996L20.5469 26.9957C20.6103 27.0565 20.6736 27.1171 20.7391 27.1783C24.2319 30.4388 27.0291 30.8692 28.8506 30.4281C29.8836 30.178 30.7092 29.1751 31.2299 28.3538C31.5852 27.7934 31.3043 27.0498 30.6673 26.8667Z" fill="#D1D1D1"/>
</g>
<defs>
<clipPath id="clip0_2122_320">
<rect width="48" height="48" fill="white"/>
</clipPath>
</defs>
</svg>
