<svg width="48" height="48" viewBox="0 0 48 48" fill="none" xmlns="http://www.w3.org/2000/svg">
<path d="M24 3C14.0586 3 6 11.0586 6 21C6 25.9689 8.0133 30.468 11.2695 33.7251C14.5266 36.984 22.2 41.7 22.65 46.65C22.7175 47.3922 23.2548 48 24 48C24.7452 48 25.2825 47.3922 25.35 46.65C25.8 41.7 33.4734 36.984 36.7305 33.7251C39.9867 30.468 42 25.9689 42 21C42 11.0586 33.9414 3 24 3Z" fill="#FF4433"/>
<path d="M23.9992 27.3012C27.4786 27.3012 30.2992 24.4805 30.2992 21.0012C30.2992 17.5218 27.4786 14.7012 23.9992 14.7012C20.5198 14.7012 17.6992 17.5218 17.6992 21.0012C17.6992 24.4805 20.5198 27.3012 23.9992 27.3012Z" fill="white"/>
</svg>
